<svg width="32" height="32" viewBox="0 0 32 32" fill="none" xmlns="http://www.w3.org/2000/svg">
  <!-- Background Circle -->
  <circle cx="16" cy="16" r="15" fill="url(#gradient)" stroke="url(#borderGradient)" stroke-width="1"/>
  
  <!-- Gallows (Forca) - Simplified for smaller size -->
  <g stroke="#4F46E5" stroke-width="1.5" fill="none">
    <!-- Base -->
    <line x1="6" y1="26" x2="11" y2="26" stroke-linecap="round"/>
    <!-- Vertical pole -->
    <line x1="8.5" y1="26" x2="8.5" y2="8" stroke-linecap="round"/>
    <!-- Horizontal beam -->
    <line x1="8.5" y1="8" x2="17.5" y2="8" stroke-linecap="round"/>
    <!-- Noose rope -->
    <line x1="17.5" y1="8" x2="17.5" y2="12" stroke-linecap="round"/>
  </g>
  
  <!-- Letter blocks - Simplified -->
  <g>
    <!-- First letter block -->
    <rect x="20" y="11" width="4" height="4" rx="1" fill="#8B5CF6"/>
    <text x="22" y="14" text-anchor="middle" font-family="Arial, sans-serif" font-size="3" font-weight="bold" fill="white">A</text>
    
    <!-- Second letter block -->
    <rect x="20" y="16" width="4" height="4" rx="1" fill="#06B6D4"/>
    <text x="22" y="19" text-anchor="middle" font-family="Arial, sans-serif" font-size="3" font-weight="bold" fill="white">B</text>
    
    <!-- Hidden letter (underscore) -->
    <rect x="25" y="11" width="4" height="4" rx="1" fill="#6B7280"/>
    <line x1="26" y1="14" x2="28" y2="14" stroke="white" stroke-width="1" stroke-linecap="round"/>
  </g>
  
  <!-- Sparkle effects -->
  <g fill="#FCD34D">
    <polygon points="24,6 24.2,6.8 25,7 24.2,7.2 24,8 23.8,7.2 23,7 23.8,6.8 24,6" opacity="0.8"/>
    <polygon points="7,14 7.2,14.6 7.8,14.8 7.2,15 7,15.6 6.8,15 6.2,14.8 6.8,14.6 7,14" opacity="0.6"/>
  </g>
  
  <!-- Gradients -->
  <defs>
    <linearGradient id="gradient" x1="0%" y1="0%" x2="100%" y2="100%">
      <stop offset="0%" style="stop-color:#667EEA;stop-opacity:1" />
      <stop offset="100%" style="stop-color:#764BA2;stop-opacity:1" />
    </linearGradient>
    <linearGradient id="borderGradient" x1="0%" y1="0%" x2="100%" y2="100%">
      <stop offset="0%" style="stop-color:#4F46E5;stop-opacity:1" />
      <stop offset="100%" style="stop-color:#7C3AED;stop-opacity:1" />
    </linearGradient>
  </defs>
</svg>
